<mxfile host="65bd71144e">
    <diagram id="Qgq9Iwwc8LfmSQMmGyRk" name="Configuration based-Application-context">
        <mxGraphModel dx="1302" dy="771" grid="1" gridSize="10" guides="1" tooltips="1" connect="1" arrows="1" fold="1" page="1" pageScale="1" pageWidth="850" pageHeight="1100" math="0" shadow="0">
            <root>
                <mxCell id="0"/>
                <mxCell id="1" parent="0"/>
                <mxCell id="2" value="ApplicationContext" style="rounded=0;whiteSpace=wrap;html=1;" parent="1" vertex="1">
                    <mxGeometry x="150" y="150" width="120" height="60" as="geometry"/>
                </mxCell>
                <mxCell id="3" value="Writer Bean" style="rounded=0;whiteSpace=wrap;html=1;" parent="1" vertex="1">
                    <mxGeometry x="500" y="200" width="120" height="60" as="geometry"/>
                </mxCell>
                <mxCell id="4" value="" style="endArrow=classic;startArrow=none;html=1;exitX=0.5;exitY=1;exitDx=0;exitDy=0;entryX=0.5;entryY=1;entryDx=0;entryDy=0;startFill=0;" parent="1" source="2" target="3" edge="1">
                    <mxGeometry width="50" height="50" relative="1" as="geometry">
                        <mxPoint x="400" y="370" as="sourcePoint"/>
                        <mxPoint x="600" y="340" as="targetPoint"/>
                        <Array as="points">
                            <mxPoint x="210" y="330"/>
                            <mxPoint x="560" y="330"/>
                        </Array>
                    </mxGeometry>
                </mxCell>
                <mxCell id="5" value="shutdown call" style="text;html=1;strokeColor=none;fillColor=none;align=center;verticalAlign=middle;whiteSpace=wrap;rounded=0;" parent="1" vertex="1">
                    <mxGeometry x="300" y="300" width="90" height="20" as="geometry"/>
                </mxCell>
                <mxCell id="6" value="Reader Bean" style="rounded=0;whiteSpace=wrap;html=1;" parent="1" vertex="1">
                    <mxGeometry x="510" y="420" width="120" height="60" as="geometry"/>
                </mxCell>
                <mxCell id="7" value="" style="endArrow=classic;html=1;entryX=-0.033;entryY=0.4;entryDx=0;entryDy=0;entryPerimeter=0;exitX=0.425;exitY=0.983;exitDx=0;exitDy=0;exitPerimeter=0;" parent="1" source="2" target="6" edge="1">
                    <mxGeometry width="50" height="50" relative="1" as="geometry">
                        <mxPoint x="50" y="440" as="sourcePoint"/>
                        <mxPoint x="450" y="310" as="targetPoint"/>
                        <Array as="points">
                            <mxPoint x="200" y="444"/>
                        </Array>
                    </mxGeometry>
                </mxCell>
                <mxCell id="8" value="shutdown call" style="text;html=1;strokeColor=none;fillColor=none;align=center;verticalAlign=middle;whiteSpace=wrap;rounded=0;" parent="1" vertex="1">
                    <mxGeometry x="305" y="410" width="80" height="20" as="geometry"/>
                </mxCell>
            </root>
        </mxGraphModel>
    </diagram>
    <diagram id="8OU7q8CLGprTMEbzBywj" name="XML-based-application-context">
        <mxGraphModel dx="1302" dy="771" grid="1" gridSize="10" guides="1" tooltips="1" connect="1" arrows="1" fold="1" page="1" pageScale="1" pageWidth="850" pageHeight="1100" math="0" shadow="0">
            <root>
                <mxCell id="-gPlx94MigzgCrc6NKgW-0"/>
                <mxCell id="-gPlx94MigzgCrc6NKgW-1" parent="-gPlx94MigzgCrc6NKgW-0"/>
                <mxCell id="v285I582kyFdi-9sOCLQ-0" value="ApplicationContext" style="rounded=0;whiteSpace=wrap;html=1;" vertex="1" parent="-gPlx94MigzgCrc6NKgW-1">
                    <mxGeometry x="290" y="380" width="120" height="60" as="geometry"/>
                </mxCell>
                <mxCell id="v285I582kyFdi-9sOCLQ-1" value="Xml Config" style="rounded=0;whiteSpace=wrap;html=1;" vertex="1" parent="-gPlx94MigzgCrc6NKgW-1">
                    <mxGeometry x="90" y="300" width="120" height="60" as="geometry"/>
                </mxCell>
                <mxCell id="v285I582kyFdi-9sOCLQ-2" value="Class 1" style="rounded=0;whiteSpace=wrap;html=1;" vertex="1" parent="-gPlx94MigzgCrc6NKgW-1">
                    <mxGeometry x="500" y="250" width="120" height="60" as="geometry"/>
                </mxCell>
                <mxCell id="v285I582kyFdi-9sOCLQ-3" value="Beran 1" style="rounded=0;whiteSpace=wrap;html=1;" vertex="1" parent="-gPlx94MigzgCrc6NKgW-1">
                    <mxGeometry x="180" y="500" width="120" height="60" as="geometry"/>
                </mxCell>
                <mxCell id="v285I582kyFdi-9sOCLQ-4" value="Bean 2" style="rounded=0;whiteSpace=wrap;html=1;" vertex="1" parent="-gPlx94MigzgCrc6NKgW-1">
                    <mxGeometry x="310" y="500" width="120" height="60" as="geometry"/>
                </mxCell>
                <mxCell id="v285I582kyFdi-9sOCLQ-5" value="Class 2" style="rounded=0;whiteSpace=wrap;html=1;" vertex="1" parent="-gPlx94MigzgCrc6NKgW-1">
                    <mxGeometry x="500" y="320" width="120" height="60" as="geometry"/>
                </mxCell>
                <mxCell id="v285I582kyFdi-9sOCLQ-6" value="" style="endArrow=classic;html=1;exitX=0.992;exitY=0.383;exitDx=0;exitDy=0;exitPerimeter=0;entryX=0.25;entryY=0;entryDx=0;entryDy=0;" edge="1" parent="-gPlx94MigzgCrc6NKgW-1" source="v285I582kyFdi-9sOCLQ-1" target="v285I582kyFdi-9sOCLQ-0">
                    <mxGeometry width="50" height="50" relative="1" as="geometry">
                        <mxPoint x="400" y="420" as="sourcePoint"/>
                        <mxPoint x="450" y="370" as="targetPoint"/>
                        <Array as="points">
                            <mxPoint x="320" y="323"/>
                        </Array>
                    </mxGeometry>
                </mxCell>
                <mxCell id="v285I582kyFdi-9sOCLQ-7" value="" style="endArrow=classic;html=1;exitX=0;exitY=0.5;exitDx=0;exitDy=0;entryX=0.5;entryY=0;entryDx=0;entryDy=0;" edge="1" parent="-gPlx94MigzgCrc6NKgW-1" source="v285I582kyFdi-9sOCLQ-2" target="v285I582kyFdi-9sOCLQ-0">
                    <mxGeometry width="50" height="50" relative="1" as="geometry">
                        <mxPoint x="400" y="420" as="sourcePoint"/>
                        <mxPoint x="450" y="370" as="targetPoint"/>
                        <Array as="points">
                            <mxPoint x="350" y="280"/>
                        </Array>
                    </mxGeometry>
                </mxCell>
                <mxCell id="v285I582kyFdi-9sOCLQ-8" value="" style="endArrow=classic;html=1;entryX=0.75;entryY=0;entryDx=0;entryDy=0;exitX=0;exitY=0.5;exitDx=0;exitDy=0;" edge="1" parent="-gPlx94MigzgCrc6NKgW-1" source="v285I582kyFdi-9sOCLQ-5" target="v285I582kyFdi-9sOCLQ-0">
                    <mxGeometry width="50" height="50" relative="1" as="geometry">
                        <mxPoint x="400" y="420" as="sourcePoint"/>
                        <mxPoint x="450" y="370" as="targetPoint"/>
                        <Array as="points">
                            <mxPoint x="380" y="350"/>
                        </Array>
                    </mxGeometry>
                </mxCell>
            </root>
        </mxGraphModel>
    </diagram>
    <diagram id="9g6_B4Rl3dqhfdQoWAt8" name="Page-3">
        <mxGraphModel dx="1302" dy="771" grid="1" gridSize="10" guides="1" tooltips="1" connect="1" arrows="1" fold="1" page="1" pageScale="1" pageWidth="850" pageHeight="1100" math="0" shadow="0">
            <root>
                <mxCell id="QLS0ogABINqUZtEbw65p-0"/>
                <mxCell id="QLS0ogABINqUZtEbw65p-1" parent="QLS0ogABINqUZtEbw65p-0"/>
            </root>
        </mxGraphModel>
    </diagram>
</mxfile>